# xmcd
#
# Track frame offsets: 
#        150
#        14700
#        29537
#        45112
#        62882
#        79167
#        95137
#        113535
#        124147
#        138892
#        155735
#        175897
#        195565
#
# Disc length: 2826 seconds
#
# Revision: 1
# Processed by: cddbd v1.5.2PL0 Copyright (c) Steve Scherf et al.
# Submitted via: ExactAudioCopy v0.99pb5
#
DISCID=ad0b080d
DTITLE=Rednex - Rednex Sex and Violins
DYEAR=1995
DGENRE=
TTITLE0=Cotton Eye Joe
TTITLE1=Hittin´the Hay
TTITLE2=Riding Alone
TTITLE3=Wish you where here
TTITLE4=Mary Lou
TTITLE5=Old Pop in an Oak
TTITLE6=Nowhere in Idaho
TTITLE7=Story of Ray Mingus
TTITLE8=Fat Sally Lee
TTITLE9=Shooter
TTITLE10=McKenzie Brothers
TTITLE11=Rolling Home
TTITLE12=Wild and Free
EXTD=
EXTT0=
EXTT1=
EXTT2=
EXTT3=
EXTT4=
EXTT5=
EXTT6=
EXTT7=
EXTT8=
EXTT9=
EXTT10=
EXTT11=
EXTT12=
PLAYORDER=
